<?xml version="1.0" standalone="no"?>
<!DOCTYPE svg PUBLIC "-//W3C//DTD SVG 20010904//EN"
 "http://www.w3.org/TR/2001/REC-SVG-20010904/DTD/svg10.dtd">
<svg version="1.0" xmlns="http://www.w3.org/2000/svg"
 width="208.000000pt" height="208.000000pt" viewBox="0 0 208.000000 208.000000"
 preserveAspectRatio="xMidYMid meet">

<g transform="translate(0.000000,208.000000) scale(0.100000,-0.100000)"
fill="#000000" stroke="none">
<path d="M943 2029 c-482 -58 -845 -422 -891 -896 -26 -264 74 -590 205 -670
74 -44 162 -25 239 52 78 77 90 128 74 292 -19 189 0 323 47 323 13 0 14 -7 7
-52 -19 -114 -4 -215 30 -202 11 4 14 28 13 104 -2 96 -1 100 25 127 41 41 71
26 118 -60 20 -38 53 -85 72 -104 41 -40 55 -42 219 -28 85 7 102 5 153 -14
71 -26 117 -27 140 -2 30 33 23 84 -22 154 -22 34 -47 87 -56 117 -9 32 -27
66 -42 80 -59 56 -67 119 -22 167 15 16 33 23 59 23 50 0 63 24 64 112 0 59 2
65 17 57 65 -35 64 -154 -1 -213 -12 -11 -21 -22 -21 -26 0 -4 22 -43 50 -88
46 -77 80 -155 80 -186 0 -8 22 -28 48 -45 59 -38 76 -68 61 -111 -11 -29 -13
-30 -70 -30 -45 0 -61 -4 -66 -15 -3 -9 -23 -25 -44 -35 -62 -32 -79 -90 -38
-131 22 -22 21 -22 189 -3 51 5 57 4 80 -21 25 -26 25 -27 5 -42 -16 -12 -38
-14 -113 -9 -80 6 -101 3 -156 -16 l-64 -22 -60 28 c-39 19 -66 26 -81 21 -38
-12 -24 -33 27 -40 94 -13 93 -23 -6 -55 -126 -42 -176 -76 -295 -201 -131
-137 -148 -148 -177 -119 -26 26 -26 26 10 163 36 141 37 181 5 371 -13 82
-22 153 -19 157 3 5 12 9 20 9 18 0 18 23 -1 60 -17 33 -39 39 -49 14 -9 -23
-7 -91 4 -159 31 -184 33 -385 4 -385 -7 0 -23 27 -35 60 -12 33 -25 60 -29
60 -17 0 -19 -33 -3 -73 19 -47 23 -144 9 -247 -8 -63 -7 -67 19 -98 23 -27
33 -32 72 -32 79 0 108 28 266 252 39 56 57 72 110 97 34 16 102 37 152 46 53
10 108 27 135 42 39 23 57 26 142 27 l97 1 41 40 c48 46 80 109 80 154 0 55
-38 112 -143 213 l-100 98 13 39 c15 47 10 56 -35 71 -19 6 -35 17 -35 24 0 6
-10 27 -23 46 -23 33 -23 34 -6 71 70 143 20 289 -98 289 l-32 0 19 -42 c24
-54 25 -90 2 -118 -17 -21 -24 -22 -172 -21 -85 1 -171 6 -190 11 -54 15 -101
69 -107 124 -6 51 -16 55 -63 31 -58 -30 -73 -111 -44 -229 l7 -29 -53 7 c-30
4 -90 16 -133 26 -114 27 -120 18 -56 -86 22 -36 39 -73 37 -83 -2 -9 -23 -26
-48 -39 -38 -19 -57 -23 -121 -20 -122 5 -146 46 -94 164 56 127 159 253 280
342 314 232 771 208 1055 -54 238 -221 342 -570 261 -885 -105 -410 -464 -694
-884 -700 l-92 -2 65 -8 c36 -4 109 -3 163 2 232 23 439 120 602 284 393 392
388 1034 -12 1416 -91 87 -140 122 -240 173 -167 85 -379 126 -550 105z m-113
-423 c0 -37 17 -75 51 -114 22 -24 27 -38 20 -45 -8 -8 -20 -4 -41 11 -34 26
-39 16 -10 -21 42 -53 14 -79 -32 -29 -38 41 -50 70 -51 123 -1 38 4 54 23 74
30 31 40 32 40 1z m300 -401 c62 -32 99 -132 58 -158 -26 -17 -31 -3 -13 33 9
18 14 34 11 37 -3 4 -24 -2 -45 -12 -44 -19 -73 -16 -122 14 l-32 19 41 21
c23 12 48 21 57 21 9 0 13 5 10 10 -3 6 -16 10 -28 10 -18 0 -19 2 -7 10 21
13 36 12 70 -5z m416 -390 c16 -13 17 -16 4 -25 -17 -11 -54 -13 -87 -4 -35
10 -27 24 12 24 19 0 35 5 35 10 0 14 13 12 36 -5z m174 -20 c0 -16 -27 -32
-37 -21 -7 7 16 36 28 36 5 0 9 -7 9 -15z"/>
</g>
</svg>
