<?xml version="1.0" standalone="no"?>
<!DOCTYPE svg PUBLIC "-//W3C//DTD SVG 20010904//EN"
 "http://www.w3.org/TR/2001/REC-SVG-20010904/DTD/svg10.dtd">
<svg version="1.0" xmlns="http://www.w3.org/2000/svg"
 width="208.000000pt" height="208.000000pt" viewBox="0 0 208.000000 208.000000"
 preserveAspectRatio="xMidYMid meet">

<g transform="translate(0.000000,208.000000) scale(0.100000,-0.100000)"
fill="#000000" stroke="none">
<path d="M693 1870 c-12 -5 -25 -21 -29 -35 -6 -26 -3 -32 50 -100 36 -45 40
-30 -89 -310 -51 -110 -100 -223 -109 -251 -15 -45 -16 -102 -14 -492 l3 -440
31 -39 c16 -21 50 -48 74 -60 43 -23 51 -23 382 -23 283 0 345 3 376 15 49 21
81 52 103 100 17 37 19 73 19 462 0 492 11 428 -134 755 -53 120 -96 226 -96
237 0 11 13 35 29 53 59 68 60 107 5 128 -32 12 -571 12 -601 0z m517 -106 c0
-3 -12 -20 -26 -37 -38 -45 -30 -83 64 -292 44 -99 92 -209 106 -244 l26 -64
0 -419 0 -418 -29 -32 -29 -33 -326 0 -325 0 -30 29 -31 30 0 425 0 425 92
206 c140 314 146 341 97 404 l-20 26 215 0 c119 0 216 -3 216 -6z"/>
<path d="M1077 1186 c-32 -14 -86 -43 -119 -65 -86 -58 -117 -56 -179 8 -26
27 -50 47 -53 43 -3 -3 -6 -171 -6 -374 0 -411 2 -426 60 -447 44 -15 386 -15
430 0 58 21 60 36 60 449 0 357 -1 371 -20 390 -28 28 -99 26 -173 -4z"/>
</g>
</svg>
