<?xml version="1.0" standalone="no"?>
<!DOCTYPE svg PUBLIC "-//W3C//DTD SVG 20010904//EN"
 "http://www.w3.org/TR/2001/REC-SVG-20010904/DTD/svg10.dtd">
<svg version="1.0" xmlns="http://www.w3.org/2000/svg"
 width="512.000000pt" height="512.000000pt" viewBox="0 0 512.000000 512.000000"
 preserveAspectRatio="xMidYMid meet">
<metadata>
Created by potrace 1.16, written by Peter Selinger 2001-2019
</metadata>
<g transform="translate(0.000000,512.000000) scale(0.100000,-0.100000)"
fill="#000000" stroke="none">
<path d="M778 5101 c-21 -12 -44 -21 -51 -21 -7 0 -19 -9 -27 -20 -8 -11 -19
-20 -25 -20 -6 0 -27 -18 -48 -40 -20 -22 -41 -40 -47 -40 -5 0 -10 -8 -10
-19 0 -10 -7 -24 -15 -31 -8 -7 -15 -19 -15 -26 0 -8 -4 -14 -10 -14 -5 0 -10
-11 -10 -25 0 -14 -4 -25 -10 -25 -5 0 -10 -16 -10 -35 0 -32 -2 -35 -29 -35
-17 0 -32 -4 -35 -9 -3 -5 -22 -12 -41 -15 -19 -4 -35 -11 -35 -16 0 -6 -7
-10 -15 -10 -8 0 -15 -4 -15 -10 0 -5 -7 -10 -15 -10 -8 0 -15 -4 -15 -9 0 -5
-9 -13 -21 -16 -11 -4 -18 -9 -15 -12 3 -3 -8 -18 -24 -33 -17 -16 -30 -31
-30 -34 0 -4 -9 -16 -20 -28 -10 -12 -17 -25 -14 -30 3 -4 0 -8 -5 -8 -6 0
-11 -9 -11 -19 0 -11 -6 -21 -12 -24 -10 -3 -13 -47 -13 -177 0 -130 3 -174
13 -178 6 -2 12 -10 12 -18 0 -8 4 -14 9 -14 5 0 13 -10 17 -22 4 -13 15 -30
25 -39 11 -9 19 -21 19 -26 0 -12 47 -53 60 -53 6 0 10 -3 10 -8 0 -4 16 -16
35 -26 19 -11 35 -23 35 -28 0 -4 9 -8 19 -8 11 0 21 -4 23 -10 9 -27 327 -27
336 0 2 6 12 10 23 10 10 0 19 3 19 8 0 4 14 13 31 21 17 7 40 23 53 36 17 17
24 19 33 9 7 -6 9 -15 6 -18 -4 -3 -2 -6 4 -6 5 0 19 -8 31 -18 20 -18 19 -18
-51 -31 -87 -16 -182 -53 -219 -86 -89 -78 59 -311 255 -400 121 -56 269 -56
427 -1 91 32 94 32 86 -1 -51 -235 -62 -326 -54 -452 14 -227 92 -489 200
-674 15 -26 25 -47 22 -47 -3 0 2 -7 10 -16 14 -14 -18 -50 -356 -387 -204
-205 -373 -371 -376 -371 -2 1 -15 11 -28 23 -13 12 -29 21 -34 21 -6 0 -10 4
-10 9 0 5 -13 12 -30 16 -16 4 -32 11 -35 16 -4 5 -17 9 -31 9 -13 0 -24 5
-24 10 0 6 -47 10 -120 10 -73 0 -120 -4 -120 -10 0 -5 -11 -10 -25 -10 -14 0
-25 -4 -25 -9 0 -5 -14 -11 -30 -15 -17 -3 -45 -19 -63 -36 -18 -16 -35 -30
-38 -30 -11 0 -49 -37 -49 -48 0 -6 -8 -17 -19 -24 -10 -7 -21 -23 -25 -35 -4
-13 -12 -23 -17 -23 -5 0 -9 -9 -9 -19 0 -11 -6 -21 -12 -23 -18 -6 -18 -349
0 -355 6 -3 12 -11 12 -19 0 -44 119 -176 188 -209 23 -11 42 -23 42 -27 0 -5
11 -8 25 -8 14 0 25 -4 25 -10 0 -5 14 -10 30 -10 27 0 30 -3 30 -30 0 -16 5
-30 10 -30 6 0 10 -9 10 -21 0 -11 9 -33 20 -49 11 -15 17 -30 13 -34 -3 -3
-1 -6 5 -6 7 0 12 -5 12 -10 0 -13 97 -110 110 -110 6 0 10 -4 10 -8 0 -5 20
-17 45 -28 25 -10 45 -21 45 -25 0 -4 30 -11 68 -14 37 -4 73 -12 80 -18 9 -7
24 -7 50 1 20 6 63 14 95 17 31 4 57 11 57 16 0 5 9 9 20 9 11 0 20 4 20 9 0
5 10 13 23 17 12 4 29 15 38 25 9 11 20 19 25 19 17 1 54 38 54 54 0 9 4 16 8
16 4 0 16 15 27 33 10 17 21 34 24 37 36 31 55 167 41 294 -6 50 -15 92 -20
94 -6 2 -10 12 -10 23 0 10 -4 19 -10 19 -5 0 -10 5 -10 10 0 6 -5 16 -10 23
-50 60 -49 58 -18 89 16 15 33 28 38 28 6 0 10 5 10 11 0 14 145 159 159 159
6 0 11 4 11 9 0 11 78 98 139 154 13 12 29 28 35 35 33 39 58 62 67 62 6 0 7
4 4 10 -3 5 0 10 8 10 12 0 13 -9 5 -47 -5 -27 -10 -102 -11 -168 -2 -109 0
-124 23 -170 65 -133 234 -237 458 -281 101 -19 463 -19 564 0 264 52 444 181
479 345 11 52 0 256 -18 320 -5 19 3 15 44 -25 27 -27 48 -52 46 -57 -2 -4 0
-7 6 -7 9 0 33 -22 67 -62 6 -7 21 -19 32 -27 12 -8 19 -18 16 -23 -3 -4 -1
-8 5 -8 6 0 22 -12 36 -27 14 -16 29 -32 34 -37 11 -11 105 -105 120 -120 6
-6 23 -21 36 -34 14 -13 25 -28 25 -34 0 -6 3 -8 6 -5 4 4 15 -3 25 -14 18
-20 17 -22 -4 -53 -12 -17 -25 -32 -29 -34 -5 -2 -8 -10 -8 -18 0 -8 -4 -14
-10 -14 -5 0 -10 -9 -10 -19 0 -11 -4 -21 -10 -23 -5 -2 -14 -44 -20 -94 -14
-127 5 -263 41 -294 3 -3 14 -20 24 -37 11 -18 23 -33 27 -33 4 0 8 -7 8 -16
0 -16 37 -53 54 -54 5 0 16 -8 25 -19 9 -10 26 -21 39 -25 12 -4 22 -12 22
-17 0 -5 9 -9 20 -9 11 0 20 -4 20 -9 0 -5 26 -12 58 -16 31 -3 74 -11 94 -17
26 -8 41 -8 50 -1 7 6 43 14 81 18 37 3 67 10 67 14 0 4 20 15 45 25 25 11 45
23 45 28 0 4 4 8 9 8 12 0 111 97 111 110 0 5 5 10 12 10 6 0 8 3 5 6 -4 4 2
19 13 34 11 16 20 38 20 49 0 12 5 21 10 21 6 0 10 14 10 30 0 27 3 30 30 30
17 0 30 5 30 10 0 6 11 10 25 10 14 0 25 3 25 8 0 4 19 16 42 27 42 20 138
107 138 125 0 6 4 10 8 10 5 0 16 19 27 43 10 23 23 45 29 49 17 11 15 350 -1
356 -7 2 -13 12 -13 23 0 10 -4 19 -9 19 -5 0 -13 10 -17 23 -4 12 -15 28 -25
35 -11 7 -19 18 -19 24 0 11 -38 48 -49 48 -3 0 -20 14 -38 30 -18 17 -46 33
-63 36 -16 4 -30 10 -30 15 0 5 -11 9 -25 9 -14 0 -25 5 -25 10 0 6 -47 10
-120 10 -73 0 -120 -4 -120 -10 0 -5 -11 -10 -24 -10 -14 0 -27 -4 -31 -9 -3
-5 -19 -12 -35 -16 -17 -4 -30 -11 -30 -16 0 -5 -4 -9 -10 -9 -5 0 -21 -9 -34
-21 -13 -12 -27 -21 -31 -20 -3 0 -172 167 -375 370 -336 335 -368 371 -354
385 8 9 13 16 10 16 -3 0 7 21 22 47 35 60 104 219 130 298 55 169 88 428 70
540 -21 127 -41 234 -54 278 -13 45 -12 48 4 42 151 -62 283 -84 388 -67 149
25 302 136 371 272 42 81 44 131 6 165 -38 33 -133 70 -220 86 l-71 13 29 21
c16 12 26 25 22 28 -3 4 6 7 20 7 15 0 27 -4 27 -8 0 -5 18 -17 40 -28 22 -10
40 -22 40 -26 0 -5 9 -8 19 -8 11 0 21 -4 23 -10 9 -27 327 -27 336 0 2 6 12
10 23 10 10 0 19 4 19 8 0 5 16 17 35 28 19 10 35 22 35 26 0 5 6 8 13 8 14 0
57 41 57 54 0 5 8 16 19 25 10 9 21 26 25 39 4 12 12 22 17 22 5 0 9 6 9 14 0
8 6 16 13 18 9 4 13 49 15 170 3 141 2 167 -12 181 -9 8 -16 23 -16 31 0 9 -4
16 -9 16 -5 0 -12 11 -15 25 -4 14 -11 25 -16 25 -6 0 -10 5 -10 11 0 6 -13
23 -30 39 -16 15 -27 30 -24 33 3 3 -4 8 -15 12 -12 3 -21 11 -21 16 0 5 -7 9
-15 9 -8 0 -15 5 -15 10 0 6 -7 10 -15 10 -8 0 -15 4 -15 10 0 5 -16 12 -35
16 -19 3 -38 10 -41 15 -3 5 -18 9 -35 9 -27 0 -29 3 -29 35 0 19 -4 35 -10
35 -5 0 -10 11 -10 25 0 14 -4 25 -10 25 -5 0 -10 6 -10 14 0 7 -7 19 -15 26
-8 7 -15 21 -15 31 0 11 -4 19 -10 19 -5 0 -32 23 -59 50 -27 28 -54 50 -60
50 -6 0 -11 5 -11 10 0 6 -5 10 -11 10 -5 0 -31 9 -56 21 -41 19 -60 20 -192
17 -113 -3 -153 -8 -176 -21 -16 -9 -34 -17 -38 -17 -4 0 -20 -11 -35 -25 -15
-14 -30 -25 -35 -25 -12 0 -57 -47 -57 -60 0 -5 -4 -10 -8 -10 -5 0 -17 -16
-28 -35 -10 -19 -22 -35 -26 -35 -5 0 -8 -9 -8 -19 0 -11 -4 -21 -10 -23 -5
-1 -14 -47 -20 -101 -12 -107 -23 -140 -82 -239 -112 -189 -261 -263 -558
-274 l-155 -6 -49 83 c-97 163 -166 211 -306 211 -140 0 -209 -48 -306 -211
l-49 -83 -155 6 c-297 11 -450 87 -560 276 -55 93 -67 132 -80 240 -6 52 -15
97 -20 98 -6 2 -10 12 -10 23 0 10 -3 19 -8 19 -4 0 -16 16 -26 35 -11 19 -23
35 -28 35 -4 0 -8 5 -8 10 0 13 -45 60 -57 60 -5 0 -20 11 -34 24 -14 13 -36
27 -50 31 -13 4 -30 13 -38 19 -9 7 -72 12 -165 14 -137 3 -155 1 -188 -17z
m247 -151 c3 -5 15 -10 26 -10 10 0 19 -4 19 -10 0 -5 7 -10 15 -10 31 0 125
-93 125 -123 0 -7 5 -18 10 -23 6 -6 13 -40 17 -77 4 -51 2 -78 -12 -114 -10
-27 -21 -50 -24 -53 -3 -3 -13 -18 -21 -34 -8 -16 -23 -31 -32 -34 -10 -2 -15
-8 -12 -13 3 -5 -2 -9 -10 -9 -9 0 -16 -4 -16 -9 0 -5 -10 -13 -22 -17 -26 -8
-38 -22 -38 -45 0 -9 122 -138 271 -287 266 -266 270 -270 217 -250 -82 32
-186 57 -267 64 l-74 7 -149 148 c-111 112 -155 149 -173 149 -16 0 -25 -6
-25 -15 0 -8 -9 -20 -20 -27 -11 -7 -20 -18 -20 -25 0 -13 -35 -53 -45 -53 -3
0 -16 -9 -28 -20 -11 -11 -38 -23 -59 -26 -21 -4 -38 -10 -38 -15 0 -5 -25 -9
-55 -9 -30 0 -55 5 -55 10 0 6 -12 10 -26 10 -30 0 -94 28 -94 41 0 5 -7 9
-17 9 -9 0 -14 3 -10 6 3 3 -5 16 -18 29 -14 12 -22 25 -18 28 3 4 1 7 -5 7
-7 0 -12 6 -12 14 0 8 -6 16 -12 18 -9 3 -13 34 -13 109 0 99 1 106 30 149 36
55 82 100 101 100 8 0 14 5 14 10 0 6 9 10 20 10 11 0 20 5 20 10 0 6 37 10
90 10 l90 0 0 84 c0 47 5 88 10 91 6 3 10 15 10 26 0 10 5 19 10 19 6 0 10 8
10 18 0 9 16 31 36 47 19 17 41 35 47 40 7 6 26 16 42 24 17 7 37 17 45 22 21
11 138 11 145 -1z m3213 1 c9 -5 31 -15 47 -22 17 -8 35 -18 42 -24 6 -5 28
-23 47 -40 20 -16 36 -38 36 -47 0 -10 5 -18 10 -18 6 0 10 -9 10 -19 0 -11 5
-23 10 -26 6 -3 10 -44 10 -91 l0 -84 90 0 c53 0 90 -4 90 -10 0 -5 9 -10 20
-10 11 0 20 -4 20 -10 0 -5 6 -10 14 -10 19 0 65 -45 101 -100 29 -43 30 -50
30 -149 0 -75 -4 -106 -12 -109 -7 -2 -13 -10 -13 -18 0 -8 -5 -14 -11 -14 -5
0 -7 -4 -4 -10 3 -5 2 -10 -3 -10 -5 0 -15 -11 -22 -25 -7 -14 -17 -25 -22
-25 -5 0 -19 -9 -31 -20 -11 -11 -38 -23 -59 -26 -21 -4 -38 -10 -38 -15 0 -5
-27 -9 -60 -9 -33 0 -60 4 -60 9 0 5 -17 11 -38 15 -21 3 -48 15 -59 26 -12
11 -25 20 -28 20 -10 0 -45 40 -45 53 0 7 -9 18 -20 25 -11 7 -20 19 -20 27 0
9 -9 15 -25 15 -18 0 -62 -37 -173 -149 l-149 -148 -74 -7 c-81 -7 -185 -32
-267 -64 -53 -20 -49 -16 217 250 149 149 271 278 271 287 0 23 -12 37 -37 45
-13 4 -23 12 -23 17 0 5 -7 9 -16 9 -8 0 -13 4 -10 9 3 5 -2 11 -12 13 -9 3
-24 18 -32 34 -8 16 -18 31 -21 34 -3 3 -14 26 -24 53 -14 36 -16 63 -12 114
4 37 11 71 17 77 5 5 10 16 10 23 0 30 94 123 125 123 8 0 15 5 15 10 0 6 9
10 19 10 11 0 23 5 26 10 8 12 119 13 143 1z m-1406 -1384 c53 -14 112 -32
130 -40 18 -8 53 -22 78 -31 77 -28 164 -81 187 -115 33 -48 55 -161 60 -311
6 -146 -6 -241 -33 -272 -10 -10 -62 -43 -118 -73 -56 -31 -134 -80 -175 -110
-41 -30 -80 -55 -87 -55 -16 0 -19 -16 -5 -25 6 -3 4 -20 -5 -40 -26 -63 -54
-261 -54 -384 0 -84 5 -135 19 -186 18 -63 138 -306 218 -441 17 -28 41 -73
53 -100 23 -51 37 -150 26 -180 -6 -16 -8 -15 -29 3 -27 26 -77 37 -124 28
l-35 -6 4 -50 c3 -29 14 -62 27 -79 11 -16 21 -31 21 -34 0 -11 -110 -38 -210
-51 -134 -19 -306 -19 -440 0 -100 13 -210 40 -210 51 0 3 9 17 20 32 25 34
43 113 29 127 -6 6 -37 10 -69 10 -48 -1 -64 -5 -84 -24 l-25 -24 -7 28 c-17
68 9 150 97 301 90 157 188 358 204 419 29 115 9 433 -35 551 -31 82 -110 150
-291 247 -47 26 -93 55 -103 66 -26 28 -39 141 -33 281 6 142 28 254 60 301
41 60 252 154 447 199 127 29 358 23 492 -13z m-1036 -1651 l52 -88 -389 -389
c-213 -214 -393 -389 -399 -389 -18 0 -12 -60 8 -67 9 -4 24 -15 33 -25 9 -10
21 -18 26 -18 12 0 63 -56 63 -70 0 -5 5 -10 10 -10 6 0 10 -8 10 -18 0 -10 6
-24 13 -30 25 -26 6 -242 -22 -242 -4 0 -15 -16 -25 -35 -11 -19 -23 -35 -28
-35 -5 0 -18 -9 -30 -20 -12 -11 -36 -23 -55 -26 -18 -3 -33 -10 -33 -15 0 -5
-31 -9 -70 -9 -40 0 -70 4 -70 10 0 6 -12 10 -28 10 -30 0 -78 29 -115 68 -31
33 -37 41 -37 51 0 6 -3 11 -8 11 -15 0 -32 82 -32 154 l0 74 -107 4 c-72 2
-108 8 -111 16 -2 7 -8 12 -12 12 -15 0 -90 73 -90 87 0 7 -3 13 -8 13 -4 0
-16 19 -26 43 -15 34 -17 58 -13 127 3 48 10 86 16 88 6 2 11 11 11 19 0 16 8
27 53 73 39 39 55 50 72 50 8 0 15 4 15 8 0 5 25 13 56 19 58 10 164 -1 164
-18 0 -5 9 -9 20 -9 11 0 20 -4 20 -10 0 -5 6 -10 14 -10 8 0 29 -18 48 -41
81 -100 84 -102 105 -91 11 6 201 193 424 416 222 223 408 404 413 403 5 -2
33 -43 62 -91z m2002 -312 c223 -223 414 -410 425 -416 21 -11 24 -9 105 91
19 23 40 41 48 41 8 0 14 5 14 10 0 6 9 10 20 10 11 0 20 4 20 9 0 17 106 28
164 18 31 -6 56 -14 56 -19 0 -4 7 -8 15 -8 17 0 33 -11 72 -50 45 -46 53 -57
53 -73 0 -8 5 -17 11 -19 6 -2 13 -40 16 -88 4 -69 2 -93 -13 -127 -10 -24
-22 -43 -26 -43 -5 0 -8 -6 -8 -13 0 -14 -75 -87 -90 -87 -4 0 -10 -5 -12 -12
-3 -8 -39 -14 -111 -16 l-107 -4 0 -84 c0 -45 -4 -86 -10 -89 -5 -3 -10 -17
-10 -31 0 -13 -4 -24 -10 -24 -5 0 -10 -5 -10 -10 0 -11 -15 -31 -38 -53 -51
-48 -84 -67 -114 -67 -16 0 -28 -4 -28 -10 0 -6 -30 -10 -70 -10 -38 0 -70 4
-70 9 0 5 -15 12 -33 15 -19 3 -43 15 -55 26 -12 11 -25 20 -30 20 -5 0 -17
16 -28 35 -10 19 -21 35 -24 35 -3 0 -14 23 -24 51 -20 55 -18 171 3 192 6 6
11 19 11 29 0 10 5 18 10 18 6 0 10 5 10 10 0 14 51 70 63 70 5 0 17 8 26 18
9 10 24 21 34 25 19 7 25 67 7 67 -6 0 -186 175 -399 389 l-389 389 25 43 c46
79 85 139 91 139 3 0 188 -183 410 -406z"/>
</g>
</svg>
