<?xml version="1.0" standalone="no"?>
<!DOCTYPE svg PUBLIC "-//W3C//DTD SVG 20010904//EN"
 "http://www.w3.org/TR/2001/REC-SVG-20010904/DTD/svg10.dtd">
<svg version="1.0" xmlns="http://www.w3.org/2000/svg"
 width="512.000000pt" height="512.000000pt" viewBox="0 0 512.000000 512.000000"
 preserveAspectRatio="xMidYMid meet">

<g transform="translate(0.000000,512.000000) scale(0.100000,-0.100000)"
fill="#000000" stroke="none">
<path d="M1510 4780 c0 -94 2 -103 25 -125 18 -19 35 -25 65 -25 30 0 47 6 65
25 23 22 25 31 25 125 l0 100 -90 0 -90 0 0 -100z"/>
<path d="M1830 4780 c0 -95 1 -102 26 -127 22 -22 32 -25 71 -20 70 8 77 21
81 142 l4 105 -91 0 -91 0 0 -100z"/>
<path d="M2150 4780 c0 -95 1 -102 26 -127 22 -22 32 -25 71 -20 70 8 77 21
81 142 l4 105 -91 0 -91 0 0 -100z"/>
<path d="M2470 4780 c0 -95 1 -102 26 -127 22 -22 32 -25 71 -20 70 8 77 21
81 142 l4 105 -91 0 -91 0 0 -100z"/>
<path d="M2790 4780 c0 -95 1 -102 26 -127 22 -22 32 -25 71 -20 70 8 77 21
81 142 l4 105 -91 0 -91 0 0 -100z"/>
<path d="M3110 4780 c0 -95 1 -102 26 -127 22 -22 32 -25 71 -20 70 8 77 21
81 142 l4 105 -91 0 -91 0 0 -100z"/>
<path d="M3430 4780 c0 -95 1 -102 26 -127 22 -22 32 -25 71 -20 70 8 77 21
81 142 l4 105 -91 0 -91 0 0 -100z"/>
<path d="M3750 4780 c0 -95 1 -102 26 -127 22 -22 32 -25 71 -20 70 8 77 21
81 142 l4 105 -91 0 -91 0 0 -100z"/>
<path d="M4070 4780 c0 -95 1 -102 26 -127 22 -22 32 -25 71 -20 70 8 77 21
81 142 l4 105 -91 0 -91 0 0 -100z"/>
<path d="M1277 4403 c-10 -16 -288 -973 -312 -1073 -68 -288 -89 -503 -82
-852 7 -335 37 -542 125 -853 l29 -100 -23 -18 c-21 -16 -26 -17 -53 -2 -43
22 -129 19 -169 -5 -55 -33 -73 -74 -70 -154 l3 -69 -38 -13 c-53 -18 -122
-70 -153 -115 -39 -57 -53 -106 -54 -191 l0 -78 -43 0 -42 0 -78 -312 c-43
-172 -77 -316 -77 -320 0 -5 542 -8 1205 -8 663 0 1205 3 1205 8 0 4 -27 109
-59 234 l-59 228 209 0 209 0 0 -30 c0 -70 60 -154 135 -189 40 -19 44 -24 35
-41 -5 -10 -10 -62 -10 -114 l0 -96 90 0 90 0 0 96 c0 52 -5 104 -10 115 -10
18 -7 19 80 19 87 0 90 -1 80 -19 -5 -11 -10 -63 -10 -115 l0 -96 90 0 90 0 0
96 c0 52 -5 104 -10 115 -10 18 -7 19 80 19 87 0 90 -1 80 -19 -5 -11 -10 -63
-10 -115 l0 -96 90 0 90 0 0 96 c0 52 -5 104 -10 115 -10 18 -7 19 80 19 87 0
90 -1 80 -19 -5 -11 -10 -63 -10 -115 l0 -96 90 0 90 0 0 96 c0 52 -5 104 -10
115 -10 18 -6 19 115 19 l125 0 0 114 0 115 141 478 c188 640 221 781 249
1062 13 133 13 509 0 642 -28 280 -64 434 -253 1074 l-132 450 -1602 3 c-881
1 -1604 -1 -1606 -5z m2563 -485 l0 -161 -712 6 c-392 4 -858 7 -1035 7 l-323
0 0 150 0 150 623 3 c342 1 808 3 1035 5 l412 2 0 -162z m144 -586 c88 -33
135 -63 197 -129 63 -65 88 -109 116 -198 16 -55 18 -102 18 -525 0 -513 -1
-522 -66 -637 -54 -95 -196 -200 -297 -219 l-32 -7 0 264 c1 209 -3 276 -15
323 -43 162 -179 298 -341 341 -46 12 -114 15 -317 15 l-258 0 7 37 c3 21 17
91 30 157 13 65 24 120 24 122 0 16 -46 -5 -116 -52 -142 -95 -155 -98 -539
-98 l-330 -1 -70 26 c-39 14 -106 49 -149 78 -43 29 -80 50 -83 47 -10 -10 56
-317 74 -349 27 -46 60 -64 162 -92 98 -25 111 -34 111 -73 0 -35 67 -173 101
-208 l29 -30 -2 -255 -3 -254 -190 -3 c-166 -2 -198 0 -255 17 -160 49 -275
166 -324 330 -24 82 -24 960 0 1042 46 154 143 261 293 321 55 23 64 23 596
29 297 3 772 5 1055 4 504 -1 516 -2 574 -23z"/>
<path d="M2815 465 c-23 -22 -25 -31 -25 -125 l0 -100 90 0 90 0 0 100 c0 94
-2 103 -25 125 -18 19 -35 25 -65 25 -30 0 -47 -6 -65 -25z"/>
</g>
</svg>
