<?xml version="1.0" standalone="no"?>
<!DOCTYPE svg PUBLIC "-//W3C//DTD SVG 20010904//EN"
 "http://www.w3.org/TR/2001/REC-SVG-20010904/DTD/svg10.dtd">
<svg version="1.0" xmlns="http://www.w3.org/2000/svg"
 width="981.000000pt" height="980.000000pt" viewBox="0 0 981.000000 980.000000"
 preserveAspectRatio="xMidYMid meet">

<g transform="translate(0.000000,980.000000) scale(0.100000,-0.100000)"
fill="#000000" stroke="none">
<path d="M4590 9789 c-277 -18 -600 -69 -880 -139 -1774 -445 -3169 -1867
-3580 -3649 -225 -976 -143 -2026 232 -2951 208 -513 427 -839 661 -984 409
-254 990 -92 1340 373 122 162 204 341 248 542 27 123 32 367 11 534 -59 475
-76 684 -77 935 0 279 10 368 65 578 56 212 104 297 179 315 49 12 101 -38
101 -98 0 -13 -16 -88 -35 -166 -53 -215 -68 -346 -62 -534 5 -178 24 -263 79
-368 52 -98 112 -124 164 -72 62 62 71 148 33 335 -21 99 -24 143 -24 315 1
211 13 292 54 373 51 99 149 183 237 203 48 11 62 10 112 -6 46 -14 70 -31
128 -89 65 -65 79 -89 177 -281 58 -116 138 -258 176 -317 81 -122 210 -263
292 -319 101 -68 147 -82 297 -87 142 -5 216 2 517 49 222 35 487 48 602 30
83 -13 166 -39 338 -105 208 -81 293 -100 430 -101 105 0 125 3 161 22 85 45
154 159 175 289 24 146 -21 267 -201 544 -185 284 -239 403 -275 603 -33 181
-67 243 -227 405 -181 184 -230 276 -231 437 -1 191 88 361 228 432 47 24 58
26 185 24 156 -2 184 7 236 76 77 102 109 247 108 493 0 160 -3 193 -21 248
l-21 63 21 -7 c101 -30 226 -142 274 -244 44 -93 57 -161 56 -280 -1 -126 -26
-229 -82 -345 -46 -96 -95 -154 -167 -200 -128 -82 -119 -200 34 -420 150
-216 184 -269 245 -380 135 -245 214 -453 228 -602 5 -51 15 -105 23 -120 24
-46 75 -87 191 -153 203 -116 284 -187 340 -299 47 -93 44 -222 -7 -326 -51
-103 -97 -115 -346 -90 -227 22 -270 13 -298 -64 -10 -25 -27 -60 -40 -77 -23
-32 -111 -83 -179 -104 -123 -39 -225 -123 -271 -223 -26 -56 -29 -72 -29
-167 0 -93 3 -112 27 -162 105 -226 315 -258 868 -131 137 31 166 34 255 30
120 -5 193 -30 258 -88 52 -45 100 -134 95 -175 -8 -72 -152 -113 -393 -114
-122 0 -334 20 -422 41 -70 16 -189 14 -263 -6 -36 -9 -123 -41 -195 -70 -170
-69 -247 -92 -354 -106 -121 -16 -181 1 -334 92 -152 91 -212 117 -295 128
-114 16 -202 -13 -228 -75 -17 -40 -11 -69 19 -102 28 -30 67 -39 242 -52 206
-15 308 -43 323 -88 6 -20 -55 -48 -256 -117 -411 -141 -723 -274 -867 -371
-222 -149 -471 -391 -1001 -974 -178 -195 -265 -277 -329 -309 -109 -55 -173
-47 -247 29 -60 62 -72 105 -65 235 5 122 34 252 137 614 134 478 156 600 147
826 -9 232 -45 472 -198 1335 -39 219 -48 364 -25 408 18 35 29 38 89 20 37
-11 41 -10 58 11 53 65 -14 270 -126 388 -63 67 -98 76 -142 39 -39 -33 -60
-94 -74 -212 -16 -140 -1 -332 57 -694 71 -455 111 -843 121 -1190 10 -391
-28 -660 -94 -660 -25 0 -79 65 -112 133 -16 34 -48 125 -71 201 -46 156 -90
251 -119 261 -28 8 -65 -12 -87 -48 -13 -23 -19 -51 -19 -98 0 -59 5 -76 43
-148 87 -167 125 -366 125 -656 0 -201 -14 -329 -58 -545 -57 -273 -19 -474
116 -608 148 -148 393 -174 627 -66 224 102 415 317 832 934 363 537 439 615
733 755 195 93 342 134 747 210 272 52 477 101 566 138 32 13 107 56 166 95
155 102 197 116 338 116 84 0 145 -6 225 -24 393 -85 694 58 952 451 69 106
149 267 183 369 19 55 21 80 17 165 -3 63 -13 126 -27 170 -36 113 -127 290
-193 373 -81 103 -448 469 -732 731 -126 117 -238 226 -248 244 -27 48 -16 87
58 199 55 85 65 107 65 145 0 24 -6 56 -14 71 -34 65 -126 120 -254 152 -42
11 -87 27 -100 37 -13 10 -36 50 -52 88 -32 81 -109 214 -172 298 l-44 58 57
117 c229 471 265 882 102 1162 -59 101 -172 207 -279 262 -131 67 -189 82
-324 83 -78 0 -122 -4 -138 -13 l-24 -14 41 -35 c51 -43 121 -183 151 -298 66
-258 12 -447 -147 -518 -88 -39 -153 -41 -353 -16 -205 27 -507 31 -740 12
-165 -14 -385 -4 -516 23 -162 33 -293 101 -400 208 -150 151 -225 355 -210
573 8 110 14 106 -120 67 -288 -83 -447 -263 -485 -549 -21 -163 10 -385 85
-605 24 -69 47 -133 51 -142 7 -17 -2 -18 -95 -18 -164 0 -358 34 -838 146
-298 69 -358 79 -411 64 -55 -14 -75 -46 -69 -108 5 -50 80 -188 301 -551 81
-134 101 -174 105 -213 4 -47 4 -48 -55 -105 -39 -39 -92 -75 -158 -110 -178
-92 -333 -126 -575 -126 -457 0 -669 128 -646 392 17 207 238 684 489 1056
406 602 962 1088 1612 1409 966 477 2076 562 3100 236 292 -93 674 -271 940
-437 491 -308 868 -678 1208 -1186 644 -963 897 -2170 691 -3297 -351 -1917
-1866 -3387 -3789 -3674 -238 -36 -308 -40 -680 -41 l-380 -1 -3 -22 c-4 -25
3 -27 128 -42 203 -24 525 -34 745 -22 999 55 1896 376 2680 957 996 738 1683
1854 1895 3078 48 278 61 430 67 753 7 389 -11 625 -73 974 -219 1214 -890
2299 -1889 3050 -927 697 -2085 1042 -3255 969z m-735 -2076 c18 -283 69 -400
263 -606 56 -59 106 -117 113 -128 26 -49 -20 -96 -79 -83 -102 23 -147 49
-234 136 -48 48 -90 84 -92 79 -8 -12 19 -86 49 -138 14 -23 57 -79 95 -124
83 -96 110 -144 110 -197 0 -77 -60 -113 -128 -78 -42 22 -202 193 -255 273
-105 158 -141 278 -141 468 -1 107 3 143 21 200 24 76 82 173 129 216 30 28
123 89 135 89 4 0 10 -48 14 -107z m1417 -1962 c30 -10 75 -31 99 -47 63 -39
171 -145 164 -161 -2 -8 -1 -11 4 -8 13 7 85 -95 127 -180 85 -176 83 -314 -7
-404 -63 -63 -160 -83 -167 -34 -2 13 22 71 56 135 56 105 82 183 82 243 0 20
-5 25 -23 25 -47 0 -120 -30 -195 -79 -119 -78 -224 -97 -347 -66 -80 21 -145
52 -273 129 -59 35 -123 71 -142 79 -28 13 -31 16 -13 16 13 1 87 34 166 75
164 86 264 122 360 132 37 4 67 11 67 16 0 26 -170 78 -258 78 l-47 1 40 21
c22 12 56 27 75 34 53 20 168 17 232 -5z m2049 -1910 c59 -22 139 -83 139
-106 0 -25 -59 -63 -117 -76 -67 -13 -295 -7 -358 11 -61 17 -113 41 -119 55
-2 7 3 23 11 35 17 24 34 24 163 2 62 -10 130 0 147 24 8 11 13 34 11 53 -4
33 -4 33 31 28 20 -3 61 -14 92 -26z m913 -103 c31 -44 16 -92 -41 -130 -34
-22 -72 -23 -118 -4 -50 21 -44 42 21 74 43 21 57 33 61 54 4 23 11 28 34 28
17 0 34 -8 43 -22z"/>
<path d="M5121 5524 c-124 -33 -211 -109 -211 -184 0 -44 26 -75 86 -102 47
-20 161 -35 190 -24 16 6 15 8 -3 29 -67 73 -62 195 10 275 20 21 20 22 1 21
-10 0 -43 -7 -73 -15z"/>
<path d="M5410 5512 c0 -5 7 -24 16 -42 12 -24 15 -49 11 -96 -2 -35 -4 -64
-2 -64 1 0 15 4 31 9 16 5 41 12 57 15 35 8 35 28 -3 92 -32 56 -110 117 -110
86z"/>
</g>
</svg>
