<?xml version="1.0" standalone="no"?>
<!DOCTYPE svg PUBLIC "-//W3C//DTD SVG 20010904//EN"
 "http://www.w3.org/TR/2001/REC-SVG-20010904/DTD/svg10.dtd">
<svg version="1.0" xmlns="http://www.w3.org/2000/svg"
 width="521.000000pt" height="475.000000pt" viewBox="0 0 521.000000 475.000000"
 preserveAspectRatio="xMidYMid meet">

<g transform="translate(0.000000,475.000000) scale(0.100000,-0.100000)"
fill="#000000" stroke="none">
<path d="M2415 4739 c-827 -85 -1541 -579 -1900 -1314 -154 -314 -229 -614
-242 -965 -24 -663 225 -1298 692 -1765 392 -393 904 -632 1465 -686 149 -14
421 -7 565 16 678 105 1264 480 1637 1050 187 285 312 613 364 960 25 166 25
514 1 675 -64 413 -213 770 -460 1100 -84 113 -280 317 -392 407 -330 267
-732 444 -1155 508 -127 19 -451 27 -575 14z m727 -585 c17 -97 -46 -307 -115
-381 -50 -55 18 -31 171 60 51 30 116 61 145 67 29 7 105 32 170 56 65 24 120
44 123 44 20 0 -25 -182 -66 -266 -53 -109 -197 -216 -310 -231 -22 -3 -40 -9
-40 -13 0 -14 159 -120 240 -160 47 -22 150 -61 230 -86 80 -25 260 -83 400
-129 140 -46 278 -91 306 -100 l51 -16 22 -74 c206 -692 7 -1440 -512 -1932
-114 -108 -328 -266 -341 -252 -2 2 -32 45 -67 94 -219 313 -290 418 -329 485
-24 41 -69 113 -100 160 -105 157 -139 237 -186 445 -44 195 -75 258 -173 355
-42 41 -104 94 -139 117 l-63 42 -240 -6 c-169 -4 -274 -2 -354 7 l-114 13
-59 -26 c-96 -44 -104 -41 -209 70 -65 69 -93 105 -93 123 0 14 -14 45 -30 69
-17 24 -30 57 -30 73 0 48 83 123 307 279 134 93 236 172 288 224 83 83 196
227 270 346 27 44 129 105 253 149 122 45 163 74 203 146 17 30 35 52 40 49
15 -10 21 -74 10 -106 -6 -18 -9 -34 -6 -37 11 -11 133 81 166 125 43 58 99
152 130 216 13 26 28 46 34 44 5 -2 13 -21 17 -43z m-859 -2115 c12 -6 50 -39
84 -72 35 -34 81 -78 103 -98 30 -28 40 -44 40 -68 0 -19 13 -49 35 -80 42
-58 63 -105 75 -172 24 -124 101 -223 194 -249 26 -7 46 -16 46 -20 0 -9 -92
-30 -131 -30 -16 0 -45 6 -63 14 -29 12 -36 22 -51 73 -21 73 -65 173 -76 173
-12 0 -12 -1 6 -130 11 -78 13 -115 5 -129 -5 -11 -10 -33 -10 -50 0 -20 -7
-35 -20 -43 -11 -7 -20 -17 -20 -23 0 -5 -20 -21 -45 -34 l-46 -24 -45 31
c-24 18 -54 32 -66 32 -12 0 -36 11 -54 25 -43 33 -70 32 -104 -5 -40 -43 -59
-110 -62 -220 -2 -94 -1 -97 49 -221 29 -70 55 -143 58 -162 l7 -36 -73 21
c-219 61 -445 176 -644 327 -63 48 -265 239 -265 251 0 4 19 13 43 19 42 13
195 94 293 157 l52 32 -19 54 c-10 29 -18 63 -19 75 0 14 28 53 74 104 41 45
89 108 106 140 41 77 102 153 152 189 l41 30 -58 0 c-99 0 -131 -15 -220 -106
-44 -44 -96 -89 -115 -99 l-34 -18 48 54 c27 30 63 77 81 104 39 61 89 107
158 142 68 35 187 43 269 19 78 -22 107 -20 134 9 25 27 52 31 87 14z"/>
<path d="M1930 1798 c-13 -14 -20 -35 -19 -57 0 -20 3 -29 6 -21 3 8 14 34 24
58 20 48 18 51 -11 20z"/>
</g>
</svg>
